<?xml version="1.0" encoding="utf-8"?>
<!-- Generator: Adobe Illustrator 24.0.0, SVG Export Plug-In . SVG Version: 6.00 Build 0)  -->
<svg version="1.1" xmlns="http://www.w3.org/2000/svg" xmlns:xlink="http://www.w3.org/1999/xlink" x="0px" y="0px"
	 viewBox="0 0 64 64" enable-background="new 0 0 64 64" xml:space="preserve">
<g id="Captions">
</g>
<g id="Icons">
	<g>
		<g>
			<path fill="#FAB400" d="M42.855,58.045C39.86,56.249,38,52.963,38,49.471V34h6.111c0.927,0,1.854-0.219,2.683-0.633L48,32.764V28
				c0-2.209-1.791-4-4-4H12c-2.209,0-4,1.791-4,4v28c0,2.209,1.791,4,4,4h32c0.559,0,1.091-0.116,1.574-0.323L42.855,58.045z"/>
		</g>
		<g>
			<path fill="#505050" d="M36,4H20c-4.418,0-8,3.582-8,8v12h4V12c0-2.209,1.791-4,4-4h16c2.209,0,4,1.791,4,4v12h4V12
				C44,7.582,40.418,4,36,4z"/>
		</g>
		<g>
			<path fill="#3C3C3C" d="M22,4h-2c-4.418,0-8,3.582-8,8v12h2V12C14,7.582,17.582,4,22,4z"/>
		</g>
		<g>
			<path fill="#DC9600" d="M12,56V28c0-2.209,1.791-4,4-4h-4c-2.209,0-4,1.791-4,4v28c0,2.209,1.791,4,4,4h4
				C13.791,60,12,58.209,12,56z"/>
		</g>
		<g>
			<path fill="#3CC8B4" d="M40,36h4.111c1.242,0,2.467-0.289,3.578-0.845L50,34l2.311,1.155C53.422,35.711,54.647,36,55.889,36H60
				v13.47c0,2.81-1.474,5.414-3.884,6.86L50,60l-6.116-3.67C41.474,54.885,40,52.281,40,49.47V36z"/>
		</g>
		<g>
			<path fill="#1EAA96" d="M45.884,56.33C43.474,54.885,42,52.281,42,49.47V36h-2v13.47c0,2.81,1.474,5.414,3.884,6.86L50,60l1-0.6
				L45.884,56.33z"/>
		</g>
		<g>
			<path fill="#BE7800" d="M34,38c0-3.737-3.416-6.675-7.295-5.864c-2.286,0.478-4.125,2.34-4.582,4.631
				C21.5,39.894,23.312,42.699,26,43.651V50c0,1.105,0.895,2,2,2h0c1.105,0,2-0.895,2-2v-6.349C32.329,42.827,34,40.611,34,38z"/>
		</g>
		<g>
			<polygon fill="#F0F0F0" points="55,44 49,50 45,46 47,44 49,46 53,42 			"/>
		</g>
	</g>
</g>
</svg>
